<svg width="18" height="18" viewBox="0 0 18 18" fill="none" xmlns="http://www.w3.org/2000/svg">
<path fill-rule="evenodd" clip-rule="evenodd" d="M18 12V5.99997C18 2.69996 15.3 0 12 0H11.0105C10.8445 0 10.71 0.134536 10.71 0.300494V3.31312C10.71 3.39306 10.7419 3.4697 10.7985 3.5261L14.4735 7.1839C14.5301 7.2403 14.562 7.31694 14.562 7.39688L14.562 11.4065C14.562 11.6743 14.2383 11.8083 14.049 11.619L7.37801 4.94801C7.32166 4.89166 7.29 4.81523 7.29 4.73553L7.29 0.300494C7.29 0.134536 7.15546 0 6.98951 0H5.99996C2.69996 0 0 2.69996 0 5.99997V12C0 15.3 2.69996 18 5.99996 18H6.98951C7.15546 18 7.29 17.8655 7.29 17.6995V14.6869C7.29 14.6069 7.25815 14.5303 7.20149 14.4739L3.52651 10.8161C3.46985 10.7597 3.438 10.6831 3.438 10.6031V6.59346C3.438 6.32575 3.76168 6.19168 3.95098 6.38098L10.622 13.052C10.6783 13.1083 10.71 13.1848 10.71 13.2645L10.71 17.6995C10.71 17.8655 10.8445 18 11.0105 18H12C15.3 18 18 15.3 18 12Z" fill="#EEF0F3"/>
</svg>
