<svg width="80" height="80" viewBox="0 0 80 80" xmlns="http://www.w3.org/2000/svg">
  <rect width="80" height="80" rx="18" fill="#0a0a0a"/>
  <g transform="translate(9 9) scale(0.775)">
    <path fill-rule="evenodd" clip-rule="evenodd" d="M80 53.3335V26.6665C80 11.9998 68.0002 0 53.3335 0H48.9355C48.1979 0 47.6 0.597938 47.6 1.33553V14.725C47.6 15.0803 47.7416 15.4209 47.9934 15.6715L64.3266 31.9285C64.5784 32.1791 64.72 32.5197 64.72 32.875L64.72 50.6957C64.72 51.8856 63.2814 52.4814 62.4401 51.6401L32.7912 21.9912C32.5407 21.7407 32.4 21.401 32.4 21.0468L32.4 1.33553C32.4 0.59794 31.8021 0 31.0645 0H26.6665C11.9998 0 0 11.9998 0 26.6665V53.3335C0 68.0002 11.9998 80 26.6665 80H31.0645C31.8021 80 32.4 79.4021 32.4 78.6645V65.275C32.4 64.9197 32.2584 64.5791 32.0066 64.3285L15.6734 48.0715C15.4216 47.8209 15.28 47.4803 15.28 47.125V29.3043C15.28 28.1144 16.7186 27.5186 17.5599 28.3599L47.2088 58.0088C47.4593 58.2593 47.6 58.599 47.6 58.9532L47.6 78.6644C47.6 79.402 48.1979 79.9999 48.9355 79.9999H53.3335C68.0002 79.9999 80 68.0002 80 53.3335Z" fill="#CCFF00"/>
  </g>
</svg>
